<svg width="152" height="76" viewBox="0 0 152 76" fill="none" xmlns="http://www.w3.org/2000/svg">
<path d="M33.5 20.4V55.5H24.95V41.05H11.65V55.5H3.1V20.4H11.65V34.15H24.95V20.4H33.5ZM61.5223 49.3H48.4223L46.3223 55.5H37.3723L50.0723 20.4H59.9723L72.6723 55.5H63.6223L61.5223 49.3ZM59.3223 42.7L54.9723 29.85L50.6723 42.7H59.3223ZM94.4375 55.5L87.1375 42.25H85.0875V55.5H76.5375V20.4H90.8875C93.6542 20.4 96.0042 20.8833 97.9375 21.85C99.9042 22.8167 101.371 24.15 102.338 25.85C103.304 27.5167 103.788 29.3833 103.788 31.45C103.788 33.7833 103.121 35.8667 101.788 37.7C100.488 39.5333 98.5542 40.8333 95.9875 41.6L104.088 55.5H94.4375ZM85.0875 36.2H90.3875C91.9542 36.2 93.1208 35.8167 93.8875 35.05C94.6875 34.2833 95.0875 33.2 95.0875 31.8C95.0875 30.4667 94.6875 29.4167 93.8875 28.65C93.1208 27.8833 91.9542 27.5 90.3875 27.5H85.0875V36.2ZM117.705 20.4V55.5H109.155V20.4H117.705ZM136.601 55.85C134.034 55.85 131.734 55.4333 129.701 54.6C127.667 53.7667 126.034 52.5333 124.801 50.9C123.601 49.2667 122.967 47.3 122.901 45H132.001C132.134 46.3 132.584 47.3 133.351 48C134.117 48.6667 135.117 49 136.351 49C137.617 49 138.617 48.7167 139.351 48.15C140.084 47.55 140.451 46.7333 140.451 45.7C140.451 44.8333 140.151 44.1167 139.551 43.55C138.984 42.9833 138.267 42.5167 137.401 42.15C136.567 41.7833 135.367 41.3667 133.801 40.9C131.534 40.2 129.684 39.5 128.251 38.8C126.817 38.1 125.584 37.0667 124.551 35.7C123.517 34.3333 123.001 32.55 123.001 30.35C123.001 27.0833 124.184 24.5333 126.551 22.7C128.917 20.8333 132.001 19.9 135.801 19.9C139.667 19.9 142.784 20.8333 145.151 22.7C147.517 24.5333 148.784 27.1 148.951 30.4H139.701C139.634 29.2667 139.217 28.3833 138.451 27.75C137.684 27.0833 136.701 26.75 135.501 26.75C134.467 26.75 133.634 27.0333 133.001 27.6C132.367 28.1333 132.051 28.9167 132.051 29.95C132.051 31.0833 132.584 31.9667 133.651 32.6C134.717 33.2333 136.384 33.9167 138.651 34.65C140.917 35.4167 142.751 36.15 144.151 36.85C145.584 37.55 146.817 38.5667 147.851 39.9C148.884 41.2333 149.401 42.95 149.401 45.05C149.401 47.05 148.884 48.8667 147.851 50.5C146.851 52.1333 145.384 53.4333 143.451 54.4C141.517 55.3667 139.234 55.85 136.601 55.85Z" fill="white"/>
<path d="M7.2465 67.1085C7.60117 67.1718 7.902 67.3587 8.149 67.669C8.396 67.9793 8.5195 68.3308 8.5195 68.7235C8.5195 69.0592 8.43083 69.3632 8.2535 69.6355C8.0825 69.9015 7.83233 70.1137 7.503 70.272C7.17367 70.424 6.7905 70.5 6.3535 70.5H3.7125V63.8975H6.23C6.67967 63.8975 7.066 63.9735 7.389 64.1255C7.712 64.2775 7.95583 64.4833 8.1205 64.743C8.28517 64.9963 8.3675 65.2813 8.3675 65.598C8.3675 65.978 8.26617 66.2947 8.0635 66.548C7.86083 66.8013 7.5885 66.9882 7.2465 67.1085ZM4.7955 66.6715H6.135C6.48967 66.6715 6.76517 66.5923 6.9615 66.434C7.16417 66.2693 7.2655 66.035 7.2655 65.731C7.2655 65.4333 7.16417 65.2022 6.9615 65.0375C6.76517 64.8665 6.48967 64.781 6.135 64.781H4.7955V66.6715ZM6.2585 69.6165C6.62583 69.6165 6.914 69.5278 7.123 69.3505C7.332 69.1732 7.4365 68.9262 7.4365 68.6095C7.4365 68.2865 7.32567 68.03 7.104 67.84C6.88233 67.65 6.58783 67.555 6.2205 67.555H4.7955V69.6165H6.2585ZM14.4084 65.2655L11.1974 72.9605H10.0764L11.1404 70.4145L9.07889 65.2655H10.2854L11.7579 69.2555L13.2874 65.2655H14.4084ZM19.869 70.5665C19.4256 70.5665 19.0266 70.4905 18.672 70.3385C18.3173 70.1802 18.0386 69.9585 17.836 69.6735C17.6333 69.3885 17.532 69.056 17.532 68.676H18.691C18.7163 68.961 18.8271 69.1953 19.0235 69.379C19.2261 69.5627 19.508 69.6545 19.869 69.6545C20.2426 69.6545 20.534 69.5658 20.743 69.3885C20.952 69.2048 21.0565 68.9705 21.0565 68.6855C21.0565 68.4638 20.99 68.2833 20.857 68.144C20.7303 68.0047 20.5688 67.897 20.3725 67.821C20.1825 67.745 19.9165 67.6627 19.5745 67.574C19.1438 67.46 18.7923 67.346 18.52 67.232C18.254 67.1117 18.026 66.928 17.836 66.681C17.646 66.434 17.551 66.1047 17.551 65.693C17.551 65.313 17.646 64.9805 17.836 64.6955C18.026 64.4105 18.292 64.192 18.634 64.04C18.976 63.888 19.3718 63.812 19.8215 63.812C20.4611 63.812 20.9836 63.9735 21.389 64.2965C21.8006 64.6132 22.0286 65.0502 22.073 65.6075H20.876C20.857 65.3668 20.743 65.161 20.534 64.99C20.325 64.819 20.0495 64.7335 19.7075 64.7335C19.3971 64.7335 19.1438 64.8127 18.9475 64.971C18.7511 65.1293 18.653 65.3573 18.653 65.655C18.653 65.8577 18.7131 66.0255 18.8335 66.1585C18.9601 66.2852 19.1185 66.3865 19.3085 66.4625C19.4985 66.5385 19.7581 66.6208 20.0875 66.7095C20.5245 66.8298 20.8791 66.9502 21.1515 67.0705C21.4301 67.1908 21.6645 67.3777 21.8545 67.631C22.0508 67.878 22.149 68.2105 22.149 68.6285C22.149 68.9642 22.0571 69.2808 21.8735 69.5785C21.6961 69.8762 21.4333 70.1168 21.085 70.3005C20.743 70.4778 20.3376 70.5665 19.869 70.5665ZM23.0659 67.859C23.0659 67.3333 23.1735 66.8678 23.3889 66.4625C23.6105 66.0572 23.9082 65.7437 24.2819 65.522C24.6619 65.294 25.0799 65.18 25.5359 65.18C25.9475 65.18 26.3054 65.2623 26.6094 65.427C26.9197 65.5853 27.1667 65.7848 27.3504 66.0255V65.2655H28.4429V70.5H27.3504V69.721C27.1667 69.968 26.9165 70.1738 26.5999 70.3385C26.2832 70.5032 25.9222 70.5855 25.5169 70.5855C25.0672 70.5855 24.6555 70.4715 24.2819 70.2435C23.9082 70.0092 23.6105 69.6862 23.3889 69.2745C23.1735 68.8565 23.0659 68.3847 23.0659 67.859ZM27.3504 67.878C27.3504 67.517 27.2744 67.2035 27.1224 66.9375C26.9767 66.6715 26.7835 66.4688 26.5429 66.3295C26.3022 66.1902 26.0425 66.1205 25.7639 66.1205C25.4852 66.1205 25.2255 66.1902 24.9849 66.3295C24.7442 66.4625 24.5479 66.662 24.3959 66.928C24.2502 67.1877 24.1774 67.498 24.1774 67.859C24.1774 68.22 24.2502 68.5367 24.3959 68.809C24.5479 69.0813 24.7442 69.2903 24.9849 69.436C25.2319 69.5753 25.4915 69.645 25.7639 69.645C26.0425 69.645 26.3022 69.5753 26.5429 69.436C26.7835 69.2967 26.9767 69.094 27.1224 68.828C27.2744 68.5557 27.3504 68.239 27.3504 67.878ZM34.6058 65.2655V70.5H33.5228V69.8825C33.3518 70.0978 33.127 70.2688 32.8483 70.3955C32.576 70.5158 32.2847 70.576 31.9743 70.576C31.5627 70.576 31.1922 70.4905 30.8628 70.3195C30.5398 70.1485 30.2833 69.8952 30.0933 69.5595C29.9097 69.2238 29.8178 68.8185 29.8178 68.3435V65.2655H30.8913V68.182C30.8913 68.6507 31.0085 69.0117 31.2428 69.265C31.4772 69.512 31.797 69.6355 32.2023 69.6355C32.6077 69.6355 32.9275 69.512 33.1618 69.265C33.4025 69.0117 33.5228 68.6507 33.5228 68.182V65.2655H34.6058ZM35.6738 67.859C35.6738 67.3333 35.7814 66.8678 35.9968 66.4625C36.2184 66.0572 36.5161 65.7437 36.8898 65.522C37.2698 65.294 37.6909 65.18 38.1533 65.18C38.4953 65.18 38.8309 65.256 39.1603 65.408C39.4959 65.5537 39.7619 65.75 39.9583 65.997V63.47H41.0508V70.5H39.9583V69.7115C39.7809 69.9648 39.5339 70.1738 39.2173 70.3385C38.9069 70.5032 38.5491 70.5855 38.1438 70.5855C37.6878 70.5855 37.2698 70.4715 36.8898 70.2435C36.5161 70.0092 36.2184 69.6862 35.9968 69.2745C35.7814 68.8565 35.6738 68.3847 35.6738 67.859ZM39.9583 67.878C39.9583 67.517 39.8823 67.2035 39.7303 66.9375C39.5846 66.6715 39.3914 66.4688 39.1508 66.3295C38.9101 66.1902 38.6504 66.1205 38.3718 66.1205C38.0931 66.1205 37.8334 66.1902 37.5928 66.3295C37.3521 66.4625 37.1558 66.662 37.0038 66.928C36.8581 67.1877 36.7853 67.498 36.7853 67.859C36.7853 68.22 36.8581 68.5367 37.0038 68.809C37.1558 69.0813 37.3521 69.2903 37.5928 69.436C37.8398 69.5753 38.0994 69.645 38.3718 69.645C38.6504 69.645 38.9101 69.5753 39.1508 69.436C39.3914 69.2967 39.5846 69.094 39.7303 68.828C39.8823 68.5557 39.9583 68.239 39.9583 67.878ZM43.0242 64.572C42.8279 64.572 42.6632 64.5055 42.5302 64.3725C42.3972 64.2395 42.3307 64.0748 42.3307 63.8785C42.3307 63.6822 42.3972 63.5175 42.5302 63.3845C42.6632 63.2515 42.8279 63.185 43.0242 63.185C43.2142 63.185 43.3757 63.2515 43.5087 63.3845C43.6417 63.5175 43.7082 63.6822 43.7082 63.8785C43.7082 64.0748 43.6417 64.2395 43.5087 64.3725C43.3757 64.5055 43.2142 64.572 43.0242 64.572ZM43.5562 65.2655V70.5H42.4732V65.2655H43.5562ZM52.0629 65.864C52.0629 66.1997 51.9837 66.5163 51.8254 66.814C51.6671 67.1117 51.4137 67.3555 51.0654 67.5455C50.7171 67.7292 50.2706 67.821 49.7259 67.821H48.5289V70.5H47.4459V63.8975H49.7259C50.2326 63.8975 50.6601 63.9862 51.0084 64.1635C51.3631 64.3345 51.6259 64.5688 51.7969 64.8665C51.9742 65.1642 52.0629 65.4967 52.0629 65.864ZM49.7259 66.9375C50.1376 66.9375 50.4447 66.8457 50.6474 66.662C50.8501 66.472 50.9514 66.206 50.9514 65.864C50.9514 65.142 50.5429 64.781 49.7259 64.781H48.5289V66.9375H49.7259ZM57.8933 67.7545C57.8933 67.9508 57.8806 68.1282 57.8553 68.2865H53.8558C53.8875 68.7045 54.0426 69.0402 54.3213 69.2935C54.6 69.5468 54.942 69.6735 55.3473 69.6735C55.93 69.6735 56.3416 69.4297 56.5823 68.942H57.7508C57.5925 69.4233 57.3043 69.8192 56.8863 70.1295C56.4746 70.4335 55.9616 70.5855 55.3473 70.5855C54.847 70.5855 54.3973 70.4747 53.9983 70.253C53.6056 70.025 53.2953 69.7083 53.0673 69.303C52.8456 68.8913 52.7348 68.4163 52.7348 67.878C52.7348 67.3397 52.8425 66.8678 53.0578 66.4625C53.2795 66.0508 53.5866 65.7342 53.9793 65.5125C54.3783 65.2908 54.8343 65.18 55.3473 65.18C55.8413 65.18 56.2815 65.2877 56.6678 65.503C57.0541 65.7183 57.355 66.0223 57.5703 66.415C57.7856 66.8013 57.8933 67.2478 57.8933 67.7545ZM56.7628 67.4125C56.7565 67.0135 56.614 66.6937 56.3353 66.453C56.0566 66.2123 55.7115 66.092 55.2998 66.092C54.9261 66.092 54.6063 66.2123 54.3403 66.453C54.0743 66.6873 53.916 67.0072 53.8653 67.4125H56.7628ZM61.6001 65.18C62.0117 65.18 62.3791 65.2655 62.7021 65.4365C63.0314 65.6075 63.2879 65.8608 63.4716 66.1965C63.6552 66.5322 63.7471 66.9375 63.7471 67.4125V70.5H62.6736V67.574C62.6736 67.1053 62.5564 66.7475 62.3221 66.5005C62.0877 66.2472 61.7679 66.1205 61.3626 66.1205C60.9572 66.1205 60.6342 66.2472 60.3936 66.5005C60.1592 66.7475 60.0421 67.1053 60.0421 67.574V70.5H58.9591V65.2655H60.0421V65.864C60.2194 65.6487 60.4442 65.4808 60.7166 65.3605C60.9952 65.2402 61.2897 65.18 61.6001 65.18ZM69.394 63.8975V64.781H67.6365V70.5H66.5535V64.781H64.7865V63.8975H69.394ZM75.2883 67.7545C75.2883 67.9508 75.2757 68.1282 75.2503 68.2865H71.2508C71.2825 68.7045 71.4377 69.0402 71.7163 69.2935C71.995 69.5468 72.337 69.6735 72.7423 69.6735C73.325 69.6735 73.7367 69.4297 73.9773 68.942H75.1458C74.9875 69.4233 74.6993 69.8192 74.2813 70.1295C73.8697 70.4335 73.3567 70.5855 72.7423 70.5855C72.242 70.5855 71.7923 70.4747 71.3933 70.253C71.0007 70.025 70.6903 69.7083 70.4623 69.303C70.2407 68.8913 70.1298 68.4163 70.1298 67.878C70.1298 67.3397 70.2375 66.8678 70.4528 66.4625C70.6745 66.0508 70.9817 65.7342 71.3743 65.5125C71.7733 65.2908 72.2293 65.18 72.7423 65.18C73.2363 65.18 73.6765 65.2877 74.0628 65.503C74.4492 65.7183 74.75 66.0223 74.9653 66.415C75.1807 66.8013 75.2883 67.2478 75.2883 67.7545ZM74.1578 67.4125C74.1515 67.0135 74.009 66.6937 73.7303 66.453C73.4517 66.2123 73.1065 66.092 72.6948 66.092C72.3212 66.092 72.0013 66.2123 71.7353 66.453C71.4693 66.6873 71.311 67.0072 71.2603 67.4125H74.1578ZM78.2541 70.5855C77.8424 70.5855 77.4719 70.5127 77.1426 70.367C76.8196 70.215 76.5631 70.0123 76.3731 69.759C76.1831 69.4993 76.0818 69.2112 76.0691 68.8945H77.1901C77.2091 69.1162 77.3136 69.303 77.5036 69.455C77.6999 69.6007 77.9438 69.6735 78.2351 69.6735C78.5391 69.6735 78.7734 69.6165 78.9381 69.5025C79.1091 69.3822 79.1946 69.2302 79.1946 69.0465C79.1946 68.8502 79.0996 68.7045 78.9096 68.6095C78.7259 68.5145 78.4314 68.41 78.0261 68.296C77.6334 68.1883 77.3136 68.0838 77.0666 67.9825C76.8196 67.8812 76.6043 67.726 76.4206 67.517C76.2433 67.308 76.1546 67.0325 76.1546 66.6905C76.1546 66.4118 76.2369 66.1585 76.4016 65.9305C76.5663 65.6962 76.8006 65.5125 77.1046 65.3795C77.4149 65.2465 77.7696 65.18 78.1686 65.18C78.7639 65.18 79.2421 65.332 79.6031 65.636C79.9704 65.9337 80.1668 66.3422 80.1921 66.8615H79.1091C79.0901 66.6272 78.9951 66.4403 78.8241 66.301C78.6531 66.1617 78.4219 66.092 78.1306 66.092C77.8456 66.092 77.6271 66.1458 77.4751 66.2535C77.3231 66.3612 77.2471 66.5037 77.2471 66.681C77.2471 66.8203 77.2978 66.9375 77.3991 67.0325C77.5004 67.1275 77.6239 67.2035 77.7696 67.2605C77.9153 67.3112 78.1306 67.3777 78.4156 67.46C78.7956 67.5613 79.1059 67.6658 79.3466 67.7735C79.5936 67.8748 79.8058 68.0268 79.9831 68.2295C80.1604 68.4322 80.2523 68.7013 80.2586 69.037C80.2586 69.3347 80.1763 69.6007 80.0116 69.835C79.8469 70.0693 79.6126 70.253 79.3086 70.386C79.0109 70.519 78.6594 70.5855 78.2541 70.5855ZM82.6923 66.149V69.0465C82.6923 69.2428 82.7366 69.3853 82.8253 69.474C82.9203 69.5563 83.0786 69.5975 83.3003 69.5975H83.9653V70.5H83.1103C82.6226 70.5 82.249 70.386 81.9893 70.158C81.7296 69.93 81.5998 69.5595 81.5998 69.0465V66.149H80.9823V65.2655H81.5998V63.964H82.6923V65.2655H83.9653V66.149H82.6923ZM85.5145 64.572C85.3181 64.572 85.1535 64.5055 85.0205 64.3725C84.8875 64.2395 84.821 64.0748 84.821 63.8785C84.821 63.6822 84.8875 63.5175 85.0205 63.3845C85.1535 63.2515 85.3181 63.185 85.5145 63.185C85.7045 63.185 85.866 63.2515 85.999 63.3845C86.132 63.5175 86.1985 63.6822 86.1985 63.8785C86.1985 64.0748 86.132 64.2395 85.999 64.3725C85.866 64.5055 85.7045 64.572 85.5145 64.572ZM86.0465 65.2655V70.5H84.9635V65.2655H86.0465ZM90.1094 65.18C90.521 65.18 90.8884 65.2655 91.2114 65.4365C91.5407 65.6075 91.7972 65.8608 91.9809 66.1965C92.1645 66.5322 92.2564 66.9375 92.2564 67.4125V70.5H91.1829V67.574C91.1829 67.1053 91.0657 66.7475 90.8314 66.5005C90.597 66.2472 90.2772 66.1205 89.8719 66.1205C89.4665 66.1205 89.1435 66.2472 88.9029 66.5005C88.6685 66.7475 88.5514 67.1053 88.5514 67.574V70.5H87.4684V65.2655H88.5514V65.864C88.7287 65.6487 88.9535 65.4808 89.2259 65.3605C89.5045 65.2402 89.799 65.18 90.1094 65.18ZM95.7468 65.18C96.1521 65.18 96.51 65.2623 96.8203 65.427C97.137 65.5853 97.384 65.7848 97.5613 66.0255V65.2655H98.6538V70.5855C98.6538 71.0668 98.5525 71.4943 98.3498 71.868C98.1471 72.248 97.8526 72.5457 97.4663 72.761C97.0863 72.9763 96.6303 73.084 96.0983 73.084C95.389 73.084 94.8 72.9162 94.3313 72.5805C93.8626 72.2512 93.5966 71.8015 93.5333 71.2315H94.6068C94.6891 71.5038 94.8633 71.7223 95.1293 71.887C95.4016 72.058 95.7246 72.1435 96.0983 72.1435C96.5353 72.1435 96.8868 72.0105 97.1528 71.7445C97.4251 71.4785 97.5613 71.0922 97.5613 70.5855V69.7115C97.3776 69.9585 97.1275 70.1675 96.8108 70.3385C96.5005 70.5032 96.1458 70.5855 95.7468 70.5855C95.2908 70.5855 94.8728 70.4715 94.4928 70.2435C94.1191 70.0092 93.8215 69.6862 93.5998 69.2745C93.3845 68.8565 93.2768 68.3847 93.2768 67.859C93.2768 67.3333 93.3845 66.8678 93.5998 66.4625C93.8215 66.0572 94.1191 65.7437 94.4928 65.522C94.8728 65.294 95.2908 65.18 95.7468 65.18ZM97.5613 67.878C97.5613 67.517 97.4853 67.2035 97.3333 66.9375C97.1876 66.6715 96.9945 66.4688 96.7538 66.3295C96.5131 66.1902 96.2535 66.1205 95.9748 66.1205C95.6961 66.1205 95.4365 66.1902 95.1958 66.3295C94.9551 66.4625 94.7588 66.662 94.6068 66.928C94.4611 67.1877 94.3883 67.498 94.3883 67.859C94.3883 68.22 94.4611 68.5367 94.6068 68.809C94.7588 69.0813 94.9551 69.2903 95.1958 69.436C95.4428 69.5753 95.7025 69.645 95.9748 69.645C96.2535 69.645 96.5131 69.5753 96.7538 69.436C96.9945 69.2967 97.1876 69.094 97.3333 68.828C97.4853 68.5557 97.5613 68.239 97.5613 67.878ZM102.183 67.1845C102.183 66.5385 102.332 65.959 102.63 65.446C102.934 64.933 103.342 64.534 103.855 64.249C104.374 63.9577 104.941 63.812 105.556 63.812C106.259 63.812 106.882 63.9862 107.427 64.3345C107.978 64.6765 108.377 65.1642 108.624 65.7975H107.323C107.152 65.4492 106.914 65.1895 106.61 65.0185C106.306 64.8475 105.955 64.762 105.556 64.762C105.119 64.762 104.729 64.8602 104.387 65.0565C104.045 65.2528 103.776 65.5347 103.58 65.902C103.39 66.2693 103.295 66.6968 103.295 67.1845C103.295 67.6722 103.39 68.0997 103.58 68.467C103.776 68.8343 104.045 69.1193 104.387 69.322C104.729 69.5183 105.119 69.6165 105.556 69.6165C105.955 69.6165 106.306 69.531 106.61 69.36C106.914 69.189 107.152 68.9293 107.323 68.581H108.624C108.377 69.2143 107.978 69.702 107.427 70.044C106.882 70.386 106.259 70.557 105.556 70.557C104.935 70.557 104.368 70.4145 103.855 70.1295C103.342 69.8382 102.934 69.436 102.63 68.923C102.332 68.41 102.183 67.8305 102.183 67.1845ZM112.162 70.5855C111.668 70.5855 111.222 70.4747 110.823 70.253C110.424 70.025 110.11 69.7083 109.882 69.303C109.654 68.8913 109.54 68.4163 109.54 67.878C109.54 67.346 109.657 66.8742 109.892 66.4625C110.126 66.0508 110.446 65.7342 110.851 65.5125C111.257 65.2908 111.709 65.18 112.21 65.18C112.71 65.18 113.163 65.2908 113.568 65.5125C113.974 65.7342 114.293 66.0508 114.528 66.4625C114.762 66.8742 114.879 67.346 114.879 67.878C114.879 68.41 114.759 68.8818 114.518 69.2935C114.278 69.7052 113.948 70.025 113.53 70.253C113.119 70.4747 112.663 70.5855 112.162 70.5855ZM112.162 69.645C112.441 69.645 112.701 69.5785 112.941 69.4455C113.188 69.3125 113.388 69.113 113.54 68.847C113.692 68.581 113.768 68.258 113.768 67.878C113.768 67.498 113.695 67.1782 113.549 66.9185C113.404 66.6525 113.21 66.453 112.97 66.32C112.729 66.187 112.469 66.1205 112.191 66.1205C111.912 66.1205 111.652 66.187 111.412 66.32C111.177 66.453 110.991 66.6525 110.851 66.9185C110.712 67.1782 110.642 67.498 110.642 67.878C110.642 68.4417 110.785 68.8787 111.07 69.189C111.361 69.493 111.725 69.645 112.162 69.645ZM122.286 65.18C122.698 65.18 123.065 65.2655 123.388 65.4365C123.718 65.6075 123.974 65.8608 124.158 66.1965C124.348 66.5322 124.443 66.9375 124.443 67.4125V70.5H123.369V67.574C123.369 67.1053 123.252 66.7475 123.018 66.5005C122.783 66.2472 122.464 66.1205 122.058 66.1205C121.653 66.1205 121.33 66.2472 121.089 66.5005C120.855 66.7475 120.738 67.1053 120.738 67.574V70.5H119.664V67.574C119.664 67.1053 119.547 66.7475 119.313 66.5005C119.078 66.2472 118.759 66.1205 118.353 66.1205C117.948 66.1205 117.625 66.2472 117.384 66.5005C117.15 66.7475 117.033 67.1053 117.033 67.574V70.5H115.95V65.2655H117.033V65.864C117.21 65.6487 117.435 65.4808 117.707 65.3605C117.98 65.2402 118.271 65.18 118.581 65.18C118.999 65.18 119.373 65.2687 119.702 65.446C120.032 65.6233 120.285 65.8798 120.462 66.2155C120.621 65.8988 120.868 65.6487 121.203 65.465C121.539 65.275 121.9 65.18 122.286 65.18ZM126.904 66.035C127.088 65.7943 127.338 65.5917 127.654 65.427C127.971 65.2623 128.329 65.18 128.728 65.18C129.184 65.18 129.599 65.294 129.972 65.522C130.352 65.7437 130.65 66.0572 130.865 66.4625C131.081 66.8678 131.188 67.3333 131.188 67.859C131.188 68.3847 131.081 68.8565 130.865 69.2745C130.65 69.6862 130.352 70.0092 129.972 70.2435C129.599 70.4715 129.184 70.5855 128.728 70.5855C128.329 70.5855 127.974 70.5063 127.664 70.348C127.354 70.1833 127.1 69.9807 126.904 69.74V72.989H125.821V65.2655H126.904V66.035ZM130.086 67.859C130.086 67.498 130.01 67.1877 129.858 66.928C129.713 66.662 129.516 66.4625 129.269 66.3295C129.029 66.1902 128.769 66.1205 128.49 66.1205C128.218 66.1205 127.958 66.1902 127.711 66.3295C127.471 66.4688 127.274 66.6715 127.122 66.9375C126.977 67.2035 126.904 67.517 126.904 67.878C126.904 68.239 126.977 68.5557 127.122 68.828C127.274 69.094 127.471 69.2967 127.711 69.436C127.958 69.5753 128.218 69.645 128.49 69.645C128.769 69.645 129.029 69.5753 129.269 69.436C129.516 69.2903 129.713 69.0813 129.858 68.809C130.01 68.5367 130.086 68.22 130.086 67.859ZM131.898 67.859C131.898 67.3333 132.006 66.8678 132.221 66.4625C132.443 66.0572 132.741 65.7437 133.114 65.522C133.494 65.294 133.912 65.18 134.368 65.18C134.78 65.18 135.138 65.2623 135.442 65.427C135.752 65.5853 135.999 65.7848 136.183 66.0255V65.2655H137.275V70.5H136.183V69.721C135.999 69.968 135.749 70.1738 135.432 70.3385C135.116 70.5032 134.755 70.5855 134.349 70.5855C133.9 70.5855 133.488 70.4715 133.114 70.2435C132.741 70.0092 132.443 69.6862 132.221 69.2745C132.006 68.8565 131.898 68.3847 131.898 67.859ZM136.183 67.878C136.183 67.517 136.107 67.2035 135.955 66.9375C135.809 66.6715 135.616 66.4688 135.375 66.3295C135.135 66.1902 134.875 66.1205 134.596 66.1205C134.318 66.1205 134.058 66.1902 133.817 66.3295C133.577 66.4625 133.38 66.662 133.228 66.928C133.083 67.1877 133.01 67.498 133.01 67.859C133.01 68.22 133.083 68.5367 133.228 68.809C133.38 69.0813 133.577 69.2903 133.817 69.436C134.064 69.5753 134.324 69.645 134.596 69.645C134.875 69.645 135.135 69.5753 135.375 69.436C135.616 69.2967 135.809 69.094 135.955 68.828C136.107 68.5557 136.183 68.239 136.183 67.878ZM141.339 65.18C141.751 65.18 142.118 65.2655 142.441 65.4365C142.77 65.6075 143.027 65.8608 143.21 66.1965C143.394 66.5322 143.486 66.9375 143.486 67.4125V70.5H142.412V67.574C142.412 67.1053 142.295 66.7475 142.061 66.5005C141.827 66.2472 141.507 66.1205 141.101 66.1205C140.696 66.1205 140.373 66.2472 140.132 66.5005C139.898 66.7475 139.781 67.1053 139.781 67.574V70.5H138.698V65.2655H139.781V65.864C139.958 65.6487 140.183 65.4808 140.455 65.3605C140.734 65.2402 141.029 65.18 141.339 65.18ZM149.579 65.2655L146.368 72.9605H145.247L146.311 70.4145L144.25 65.2655H145.456L146.929 69.2555L148.458 65.2655H149.579Z" fill="white"/>
</svg>
